<svg xmlns="http://www.w3.org/2000/svg" xmlns:xlink="http://www.w3.org/1999/xlink" viewBox="0 0 271.94 344.05"><defs><style>.cls-1{fill:#fff;stroke:#339;stroke-miterlimit:10;stroke-width:7px;}.cls-2{fill:#284596;}.cls-3,.cls-4,.cls-5{fill:#339;}.cls-4,.cls-5{font-size:36px;font-family:PTMono-Bold, PT Mono;font-weight:700;}.cls-5,.cls-6{isolation:isolate;}</style></defs><g id="Layer_2" data-name="Layer 2"><g id="Layer_1-2" data-name="Layer 1"><polygon class="cls-1" points="267.9 118.2 202.09 232.5 70.26 232.3 4.04 117.8 69.86 3.5 201.79 3.7 267.9 118.2"/><path class="cls-2" d="M69.17,116h-.3l.4,6v24h-9V96H69.9l16.66,31h.38l-.67-6V96h9v50h-8.7Z"/><path class="cls-3" d="M139.37,126h8.9v20h-33V96h10v42h14Z"/><path class="cls-2" d="M170.27,96h32v9h-22v12h21v9h-21v21h-10Z"/><text class="cls-4" transform="translate(54.61 292.39)">PLUMBING</text><text class="cls-5" transform="translate(43.81 335.59)">&amp; HEATING</text><path class="cls-3" d="M81.57,173a13.49,13.49,0,0,1,.7-4.4,13.17,13.17,0,0,1,2.8-5.2l2.6-3.1c.8-.9,1.6-1.9,2.4-2.9s1.4-2,2.1-3c.4-.7.9-1.4,1.3-2.1a28.75,28.75,0,0,0,1.8-4,14.62,14.62,0,0,0,.5-2c0-.1,0-.2.2-.2s.1.1.1.2a11.7,11.7,0,0,0,.7,2.5,19.64,19.64,0,0,0,1.5,3.3,32.58,32.58,0,0,0,2.4,4c.7,1,1.5,2,2.2,3,.6.7,1.1,1.4,1.7,2s1.1,1.3,1.7,1.9l1.5,2.1a15.88,15.88,0,0,1,1.8,4,14,14,0,0,1,.4,6.1,15.28,15.28,0,0,1-1.4,4.6,14.77,14.77,0,0,1-3.1,4.3,14,14,0,0,1-2.7,2.1,12.44,12.44,0,0,1-2,1,12.31,12.31,0,0,1-5.4.9,9.86,9.86,0,0,1-3.8-.7,14.72,14.72,0,0,1-2.2-1,14.2,14.2,0,0,1-2.8-2,12.67,12.67,0,0,1-2.7-3.4,15.66,15.66,0,0,1-1.9-5.5A6.25,6.25,0,0,1,81.57,173Z"/><g id="dhlFh6.tif"><image id="Layer_0" data-name="Layer 0" class="cls-6" width="222" height="275" transform="translate(167.27 39) scale(0.18 0.19)" xlink:href="../C5A06F6EFF90B99F.png"/></g></g></g></svg>