<svg xmlns="http://www.w3.org/2000/svg" viewBox="0 0 28.4 42.16"><defs><style>.cls-1{fill:#0076e9;}</style></defs><g id="Layer_2" data-name="Layer 2"><g id="Layer_1-2" data-name="Layer 1"><path class="cls-1" d="M0,26.82a15.36,15.36,0,0,1,.66-4.36A13.52,13.52,0,0,1,3.46,17.3l2.62-3.06q1.21-1.43,2.37-2.91c.75-1,1.45-2,2.12-3,.43-.69.87-1.37,1.26-2.08a21.6,21.6,0,0,0,1.76-4,13.52,13.52,0,0,0,.47-2c0-.1,0-.25.15-.25s.12.14.14.23A13.55,13.55,0,0,0,15,2.71a25.8,25.8,0,0,0,1.53,3.34,38.74,38.74,0,0,0,2.43,4q1.07,1.5,2.25,3c.57.68,1.14,1.35,1.73,2S24.07,16.33,24.6,17a17.5,17.5,0,0,1,1.47,2.13,17.2,17.2,0,0,1,1.76,4,14.81,14.81,0,0,1,.42,6.14,16.14,16.14,0,0,1-1.36,4.6,15,15,0,0,1-3.09,4.3,14.82,14.82,0,0,1-4.71,3.08,12.72,12.72,0,0,1-5.38.9,12.25,12.25,0,0,1-3.8-.67,14.14,14.14,0,0,1-2.25-1,13.92,13.92,0,0,1-2.81-2,14.81,14.81,0,0,1-2.71-3.4A15.51,15.51,0,0,1,.2,29.56,13.21,13.21,0,0,1,0,26.82Z"/></g></g></svg>